<svg width="21" height="21" viewBox="0 0 21 21" fill="none" xmlns="http://www.w3.org/2000/svg">
<path fill-rule="evenodd" clip-rule="evenodd" d="M14.1458 1.00625V2.0125H5.97917V1.00625C5.97917 0.452813 5.51979 0 4.95833 0C4.39688 0 3.9375 0.452813 3.9375 1.00625V2.0125H2.91667C1.78354 2.0125 0.885208 2.91813 0.885208 4.025L0.875 18.1125C0.875 19.2194 1.78354 20.125 2.91667 20.125H17.2083C18.3313 20.125 19.25 19.2194 19.25 18.1125V4.025C19.25 2.91813 18.3313 2.0125 17.2083 2.0125H16.1875V1.00625C16.1875 0.452813 15.7281 0 15.1667 0C14.6052 0 14.1458 0.452813 14.1458 1.00625ZM14.1458 11.0688H11.0833C10.5219 11.0688 10.0625 11.5216 10.0625 12.075V15.0938C10.0625 15.6472 10.5219 16.1 11.0833 16.1H14.1458C14.7073 16.1 15.1667 15.6472 15.1667 15.0938V12.075C15.1667 11.5216 14.7073 11.0688 14.1458 11.0688ZM3.9375 18.1125H16.1875C16.749 18.1125 17.2083 17.6597 17.2083 17.1063V7.04375H2.91667V17.1063C2.91667 17.6597 3.37604 18.1125 3.9375 18.1125Z" fill="white"/>
</svg>
