<svg width="34" height="34" viewBox="0 0 34 34" fill="none" xmlns="http://www.w3.org/2000/svg">
<path d="M15.9997 14.1229L8.47562 6.59819C7.67148 5.79404 6.35976 5.79404 5.58797 6.63728C4.82114 7.40244 4.82114 8.71415 5.66436 9.48594L13.1509 16.9743L5.5984 24.5243C4.79415 25.3285 4.79415 26.6402 5.63738 27.412C6.40253 28.1789 7.71425 28.1789 8.48604 27.3356L15.9742 19.849L23.5241 27.4016C24.3284 28.2059 25.6401 28.2059 26.4119 27.3626C27.1787 26.5975 27.1787 25.2858 26.3355 24.514L18.8751 16.9997L26.4018 9.47451C27.206 8.67031 27.206 7.35861 26.3628 6.58681C25.6206 5.84291 24.3688 5.8232 23.5632 6.56086L15.9997 14.1229Z" fill="#748AA1"/>
</svg>
