<svg width="19" height="20" viewBox="0 0 19 20" fill="none" xmlns="http://www.w3.org/2000/svg">
<path d="M6.75317 5.06761C6.40627 4.72072 6.25292 4.55061 6.25298 4.15282C6.25292 3.75519 6.40633 3.58508 6.75332 3.23804C7.02965 2.96177 7.02965 2.51385 6.75338 2.23752C6.47711 1.96116 6.02904 1.96125 5.75271 2.23746C5.36662 2.62351 4.83774 3.15227 4.83789 4.15279C4.83774 5.15347 5.36653 5.6822 5.75268 6.06819C6.0996 6.41518 6.25301 6.58537 6.25301 6.98307C6.25301 7.37386 6.56981 7.69063 6.96057 7.69063C7.35134 7.69063 7.66814 7.37389 7.66814 6.98307C7.66807 5.98243 7.13931 5.45366 6.75317 5.06761Z" fill="#505363"/>
<path d="M10.0549 5.06761C9.70803 4.72072 9.55468 4.55061 9.55474 4.15282C9.55468 3.75519 9.70809 3.58508 10.0551 3.23804C10.3314 2.96177 10.3314 2.51385 10.0551 2.23752C9.77887 1.96116 9.33079 1.96125 9.05446 2.23746C8.66838 2.62351 8.1395 3.15233 8.13965 4.15279C8.1395 5.15347 8.66829 5.6822 9.05443 6.06819C9.40136 6.41518 9.55477 6.58537 9.55477 6.98307C9.55477 7.37386 9.87157 7.69063 10.2623 7.69063C10.6531 7.69063 10.9699 7.37389 10.9699 6.98307C10.9699 5.98243 10.4411 5.45366 10.0549 5.06761Z" fill="#505363"/>
<path fill-rule="evenodd" clip-rule="evenodd" d="M13.5645 14.2945H12.8959C12.5875 15.017 12.1268 15.6594 11.5541 16.1813H13.0928C13.4836 16.1813 13.8004 16.498 13.8004 16.8888C13.8004 17.2795 13.4836 17.5964 13.0928 17.5964H7.90411H2.71537C2.32461 17.5964 2.00781 17.2795 2.00781 16.8888C2.00781 16.498 2.32461 16.1813 2.71537 16.1813H4.25411C3.16442 15.1884 2.47951 13.7586 2.47951 12.1718V9.81327C2.47951 9.42257 2.79631 9.10571 3.18707 9.10571H12.6211H13.5645C14.9951 9.10571 16.1589 10.2696 16.1589 11.7001C16.1589 13.13 14.996 14.2934 13.5664 14.2944L13.5645 14.2945ZM13.3287 10.5209V12.1718C13.3287 12.4116 13.3128 12.6477 13.2825 12.8794H13.5636H13.5646C14.2148 12.8794 14.7438 12.3504 14.7438 11.7001C14.7438 11.0499 14.2148 10.5209 13.5646 10.5209H13.3287Z" fill="#505363"/>
</svg>
