<svg width="48" height="48" viewBox="0 0 48 48" fill="none" xmlns="http://www.w3.org/2000/svg">
<g filter="url(#filter0_d)">
<rect x="4" y="3" width="40" height="40" rx="5" fill="white"/>
</g>
<mask id="mask0" mask-type="alpha" maskUnits="userSpaceOnUse" x="4" y="3" width="40" height="40">
<rect x="4" y="3" width="40" height="40" rx="5" fill="white"/>
</mask>
<g mask="url(#mask0)">
<path fill-rule="evenodd" clip-rule="evenodd" d="M55.9411 62.3171C48.0302 42.6058 28.7958 34.7412 28.7958 34.7412L27.4346 52.1501C27.4346 52.1501 38.4984 59.0325 39.6033 63.7904C43.1104 64.1534 49.4465 64.358 55.9411 62.3171Z" fill="#B1A7FF"/>
<mask id="mask1" mask-type="alpha" maskUnits="userSpaceOnUse" x="16" y="14" width="20" height="20">
<path fill-rule="evenodd" clip-rule="evenodd" d="M27.2891 14.281C22.2091 14.3184 19.6024 18.2151 18.6825 20.4748C17.6505 23.0015 16.6416 29.9159 16.6416 29.9159C16.6416 29.9159 19.0312 33.4229 26.1289 33.5315C31.9793 33.6204 35.6127 30.729 35.6127 30.729C35.6127 30.729 35.8832 15.6742 29.4011 14.475C28.7143 14.3468 28.0648 14.2863 27.451 14.281H27.2891Z" fill="white"/>
</mask>
<g mask="url(#mask1)">
<path fill-rule="evenodd" clip-rule="evenodd" d="M27.2891 14.281C22.2091 14.3184 19.6024 18.2151 18.6825 20.4748C17.6505 23.0015 16.6416 29.9159 16.6416 29.9159C16.6416 29.9159 19.0312 33.4229 26.1289 33.5315C31.9793 33.6204 35.6127 30.729 35.6127 30.729C35.6127 30.729 35.8832 15.6742 29.4011 14.475C28.7143 14.3468 28.0648 14.2863 27.451 14.281H27.2891Z" fill="#7463F7"/>
</g>
<path fill-rule="evenodd" clip-rule="evenodd" d="M14.4088 40.6914C6.31642 53.1182 2.94105 59.5308 -7.91102 97.2115C-18.3432 133.433 3.26311 231.956 3.26311 231.956H9.60816C9.60816 231.956 13.7219 112.939 19.7218 106.766C19.7218 106.766 49.1304 115.152 48.8155 107.676C47.7248 81.7296 31.4991 76.8579 29.6148 67.5307C27.7288 58.2035 38.0577 41.5063 31.5436 37.4584C25.695 33.825 19.9264 32.2183 14.4088 40.6914Z" fill="#FF6687"/>
<path fill-rule="evenodd" clip-rule="evenodd" d="M48.815 107.675C47.7243 81.7307 31.5004 76.8589 29.6144 67.5299C27.7283 58.2027 39.0679 40.8757 32.5538 36.8295C26.7034 33.1962 19.926 32.2175 14.4083 40.6906C6.31594 53.1174 2.94057 59.5301 -7.9115 97.2107C-9.70862 103.447 -10.5538 110.42 -10.7246 117.692C-6.90085 118.543 3.57756 120.675 15.846 121.502C18.2783 121.666 20.78 121.78 23.3138 121.821C31.9648 121.963 40.986 121.269 48.8702 118.943C48.8879 113.235 48.8755 109.118 48.815 107.675Z" fill="#B1A7FF"/>
<path fill-rule="evenodd" clip-rule="evenodd" d="M24.3965 34.1562C24.3965 34.1562 -12.7842 37.932 -20.9174 62.9972C-27.7874 84.1694 -0.231068 94.7599 13.0605 69.353C14.4359 66.7231 14.6352 59.7375 12.7064 57.4814C9.4858 53.7145 -6.50673 64.5559 -6.38396 62.4403C-6.2594 60.3229 15.4127 44.4034 15.4127 44.4034L24.3965 34.1562Z" fill="#B1A7FF"/>
<path fill-rule="evenodd" clip-rule="evenodd" d="M24.4816 35.4492C24.4816 35.4492 22.0724 36.9865 21.5528 39.2409C21.0351 41.4953 23.5866 42.5861 26.1292 41.7871C28.6701 40.9864 29.1505 38.2232 29.3463 36.8406C29.5438 35.4581 26.0385 34.7837 24.4816 35.4492Z" fill="#F1EFFF"/>
<path fill-rule="evenodd" clip-rule="evenodd" d="M28.7218 28.6584L28.8179 36.4376C28.8286 37.717 25.6721 41.0069 23.6525 39.386C23.06 38.9109 23.8394 37.1511 24.3963 35.822L25.9229 29.1406L28.7218 28.6584Z" fill="#FD68BC"/>
<path fill-rule="evenodd" clip-rule="evenodd" d="M25.0166 33.1094C26.6838 32.5969 28.3617 30.0952 28.3617 30.0952H25.7052L25.0166 33.1094Z" fill="#2D2D2D"/>
<path fill-rule="evenodd" clip-rule="evenodd" d="M28.7197 23.675L29.1877 26.6607C29.5578 29.029 28.0436 31.3759 25.6842 31.7941C23.5063 32.182 21.4049 30.9258 21.0811 28.1749C20.7964 25.7284 22.533 23.6181 23.1611 22.5114C24.5952 19.9901 27.9332 20.2801 28.7197 23.675Z" fill="#FD68BC"/>
<path fill-rule="evenodd" clip-rule="evenodd" d="M28.6358 26.5448C28.7319 26.2975 28.7906 26.0377 28.8333 25.7761C28.9152 25.2779 29.1518 24.5555 29.8315 25.0413C30.8208 25.7459 30.239 28.3775 28.9757 28.3775C28.0362 28.3775 28.3903 27.1676 28.6358 26.5448Z" fill="#FD68BC"/>
<path fill-rule="evenodd" clip-rule="evenodd" d="M22.3615 25.6255C22.3241 25.3622 22.3241 25.097 22.3437 24.8319C22.3775 24.3284 22.3135 23.5722 21.5395 23.8871C20.4149 24.3497 20.3811 27.0418 21.6124 27.3319C22.527 27.5472 22.4576 26.2874 22.3615 25.6255Z" fill="#FD68BC"/>
<path fill-rule="evenodd" clip-rule="evenodd" d="M25.8304 27.8748C25.8304 27.8748 24.6008 27.9744 22.9639 27.4976C22.9639 27.4976 23.1827 28.7591 23.7806 29.2449C24.3802 29.7306 25.2236 29.1114 25.8304 27.8748Z" fill="white"/>
<mask id="mask2" mask-type="alpha" maskUnits="userSpaceOnUse" x="24" y="20" width="6" height="6">
<path fill-rule="evenodd" clip-rule="evenodd" d="M28.9707 25.2737C28.9707 25.2737 29.6344 23.5317 29.2429 22.3324C28.8515 21.1314 24.5615 20.5496 24.5615 20.5496C24.5615 20.5496 25.5259 24.8715 28.9707 25.2737Z" fill="white"/>
</mask>
<g mask="url(#mask2)">
<path fill-rule="evenodd" clip-rule="evenodd" d="M28.9707 25.2737C28.9707 25.2737 29.6344 23.5317 29.2429 22.3324C28.8515 21.1314 24.5615 20.5496 24.5615 20.5496C24.5615 20.5496 25.5259 24.8715 28.9707 25.2737Z" fill="#7463F7"/>
</g>
</g>
<defs>
<filter id="filter0_d" x="0" y="0" width="48" height="48" filterUnits="userSpaceOnUse" color-interpolation-filters="sRGB">
<feFlood flood-opacity="0" result="BackgroundImageFix"/>
<feColorMatrix in="SourceAlpha" type="matrix" values="0 0 0 0 0 0 0 0 0 0 0 0 0 0 0 0 0 0 127 0"/>
<feOffset dy="1"/>
<feGaussianBlur stdDeviation="2"/>
<feColorMatrix type="matrix" values="0 0 0 0 0.898039 0 0 0 0 0.913725 0 0 0 0 0.94902 0 0 0 1 0"/>
<feBlend mode="normal" in2="BackgroundImageFix" result="effect1_dropShadow"/>
<feBlend mode="normal" in="SourceGraphic" in2="effect1_dropShadow" result="shape"/>
</filter>
</defs>
</svg>
